<mxfile host="app.diagrams.net" modified="2024-06-02T19:32:45.718Z" agent="Mozilla/5.0 (Windows NT 10.0; Win64; x64) AppleWebKit/537.36 (KHTML, like Gecko) Chrome/125.0.0.0 Safari/537.36" etag="pVnrxc3f3I6UD7DgNCKV" version="24.4.13" type="github">
  <diagram name="Page-1" id="Jh7kfL7YhIAKN7tZoJZo">
    <mxGraphModel dx="6950" dy="4520" grid="0" gridSize="10" guides="1" tooltips="1" connect="1" arrows="1" fold="1" page="1" pageScale="1" pageWidth="6000" pageHeight="4000" background="#030303" math="0" shadow="0">
      <root>
        <mxCell id="0" />
        <mxCell id="1" parent="0" />
        <mxCell id="ekbk7nr5uobHXBr4TiGC-4" value="" style="sketch=0;pointerEvents=1;shadow=0;dashed=0;html=1;labelPosition=center;verticalLabelPosition=bottom;verticalAlign=top;outlineConnect=0;align=center;shape=mxgraph.office.servers.web_server_blue;fillColor=#dae8fc;strokeColor=#6c8ebf;gradientColor=#7ea6e0;" vertex="1" parent="1">
          <mxGeometry x="1758" y="49" width="313" height="255" as="geometry" />
        </mxCell>
        <mxCell id="ekbk7nr5uobHXBr4TiGC-5" value="" style="sketch=0;pointerEvents=1;shadow=0;dashed=0;html=1;labelPosition=center;verticalLabelPosition=bottom;verticalAlign=top;outlineConnect=0;align=center;shape=mxgraph.office.servers.application_server_blue;fillColor=#dae8fc;strokeColor=#6c8ebf;gradientColor=#7ea6e0;" vertex="1" parent="1">
          <mxGeometry x="1736" y="564" width="309" height="268" as="geometry" />
        </mxCell>
        <mxCell id="ekbk7nr5uobHXBr4TiGC-6" value="" style="shape=image;html=1;verticalAlign=top;verticalLabelPosition=bottom;labelBackgroundColor=#ffffff;imageAspect=0;aspect=fixed;image=https://cdn1.iconfinder.com/data/icons/100-basic-for-user-interface/32/73-files-128.png" vertex="1" parent="1">
          <mxGeometry x="2396" y="529.16" width="292" height="292" as="geometry" />
        </mxCell>
        <mxCell id="ekbk7nr5uobHXBr4TiGC-8" value="" style="sketch=0;outlineConnect=0;dashed=0;verticalLabelPosition=bottom;verticalAlign=top;align=center;html=1;fontSize=12;fontStyle=0;aspect=fixed;pointerEvents=1;shape=mxgraph.aws4.rds_mysql_instance;" vertex="1" parent="1">
          <mxGeometry x="1750" y="1106" width="192" height="192" as="geometry" />
        </mxCell>
        <mxCell id="ekbk7nr5uobHXBr4TiGC-9" value="" style="sketch=0;pointerEvents=1;shadow=0;dashed=0;html=1;strokeColor=none;fillColor=#015782;labelPosition=center;verticalLabelPosition=bottom;verticalAlign=top;align=center;outlineConnect=0;shape=mxgraph.veeam2.dns;" vertex="1" parent="1">
          <mxGeometry x="163.5" y="83" width="372" height="357" as="geometry" />
        </mxCell>
        <mxCell id="ekbk7nr5uobHXBr4TiGC-10" value="" style="verticalLabelPosition=bottom;html=1;verticalAlign=top;align=center;strokeColor=none;fillColor=#00BEF2;shape=mxgraph.azure.laptop;pointerEvents=1;" vertex="1" parent="1">
          <mxGeometry x="134.5" y="849" width="480" height="353" as="geometry" />
        </mxCell>
        <mxCell id="ekbk7nr5uobHXBr4TiGC-11" value="" style="shadow=0;dashed=0;html=1;strokeColor=none;fillColor=#033269;labelPosition=center;verticalLabelPosition=bottom;verticalAlign=top;align=center;outlineConnect=0;shape=mxgraph.veeam.linux;" vertex="1" parent="1">
          <mxGeometry x="2512" y="1109" width="208" height="204" as="geometry" />
        </mxCell>
        <mxCell id="ekbk7nr5uobHXBr4TiGC-17" value="&lt;h2 style=&quot;&quot;&gt;&lt;span style=&quot;font-weight: 400; text-align: left;&quot;&gt;&lt;font style=&quot;font-size: 47px;&quot;&gt;webserver (Nginx)&lt;/font&gt;&lt;/span&gt;&lt;/h2&gt;" style="text;strokeColor=none;align=center;fillColor=none;html=1;verticalAlign=middle;rounded=0;fontFamily=Comic Sans MS;fontSize=58;fontColor=#F0F0F0;labelBorderColor=none;fontStyle=1;textShadow=1;whiteSpace=wrap;labelBackgroundColor=none;" vertex="1" parent="1">
          <mxGeometry x="1630" y="268" width="577" height="114" as="geometry" />
        </mxCell>
        <mxCell id="ekbk7nr5uobHXBr4TiGC-18" value="&lt;h2 style=&quot;text-align: left;&quot;&gt;&lt;span style=&quot;font-weight: 400;&quot;&gt;&lt;font style=&quot;font-size: 54px;&quot;&gt;Database&lt;/font&gt;&lt;/span&gt;&lt;/h2&gt;" style="text;strokeColor=none;align=center;fillColor=none;html=1;verticalAlign=middle;rounded=0;fontFamily=Comic Sans MS;fontSize=58;fontColor=#F0F0F0;labelBorderColor=none;fontStyle=1;textShadow=1;whiteSpace=wrap;labelBackgroundColor=none;" vertex="1" parent="1">
          <mxGeometry x="1569" y="1273" width="567" height="107" as="geometry" />
        </mxCell>
        <mxCell id="ekbk7nr5uobHXBr4TiGC-20" value="&lt;h2 style=&quot;text-align: left; font-size: 58px;&quot;&gt;&lt;span style=&quot;font-weight: 400;&quot;&gt;Client/user&lt;/span&gt;&lt;/h2&gt;" style="text;strokeColor=none;align=center;fillColor=none;html=1;verticalAlign=middle;rounded=0;fontFamily=Comic Sans MS;fontSize=58;fontColor=#F0F0F0;labelBorderColor=none;fontStyle=1;textShadow=1;whiteSpace=wrap;labelBackgroundColor=none;" vertex="1" parent="1">
          <mxGeometry x="81" y="1191" width="577" height="167" as="geometry" />
        </mxCell>
        <mxCell id="ekbk7nr5uobHXBr4TiGC-23" value="&lt;h2 style=&quot;text-align: left;&quot;&gt;&lt;span style=&quot;font-weight: 400;&quot;&gt;&lt;font style=&quot;font-size: 47px;&quot;&gt;Application server&lt;/font&gt;&lt;/span&gt;&lt;/h2&gt;" style="text;strokeColor=none;align=center;fillColor=none;html=1;verticalAlign=middle;rounded=0;fontFamily=Comic Sans MS;fontSize=58;fontColor=#F0F0F0;labelBorderColor=none;fontStyle=1;textShadow=1;whiteSpace=wrap;labelBackgroundColor=none;" vertex="1" parent="1">
          <mxGeometry x="1597" y="794" width="577" height="124" as="geometry" />
        </mxCell>
        <mxCell id="ekbk7nr5uobHXBr4TiGC-24" value="&lt;h2 style=&quot;text-align: left; font-size: 58px;&quot;&gt;&lt;span style=&quot;font-weight: 400;&quot;&gt;Application&amp;nbsp; files&lt;/span&gt;&lt;/h2&gt;" style="text;strokeColor=none;align=center;fillColor=none;html=1;verticalAlign=middle;rounded=0;fontFamily=Comic Sans MS;fontSize=58;fontColor=#F0F0F0;labelBorderColor=none;fontStyle=1;textShadow=1;whiteSpace=wrap;labelBackgroundColor=none;" vertex="1" parent="1">
          <mxGeometry x="2338" y="779" width="484" height="167" as="geometry" />
        </mxCell>
        <mxCell id="ekbk7nr5uobHXBr4TiGC-33" value="" style="verticalLabelPosition=bottom;verticalAlign=top;html=1;shape=mxgraph.basic.diag_snip_rect;dx=6;whiteSpace=wrap;dashed=0;sketch=0;strokeColor=#21E1FF;align=center;fontFamily=Helvetica;fontSize=12;fontColor=default;fillColor=none;strokeWidth=12;" vertex="1" parent="1">
          <mxGeometry x="81.5" y="56" width="533" height="433" as="geometry" />
        </mxCell>
        <mxCell id="ekbk7nr5uobHXBr4TiGC-36" value="" style="verticalLabelPosition=bottom;verticalAlign=top;html=1;shape=mxgraph.basic.diag_snip_rect;dx=6;whiteSpace=wrap;dashed=0;sketch=0;strokeColor=#21E1FF;align=center;fontFamily=Helvetica;fontSize=12;fontColor=default;fillColor=none;strokeWidth=12;" vertex="1" parent="1">
          <mxGeometry x="73" y="800" width="593" height="523" as="geometry" />
        </mxCell>
        <mxCell id="ekbk7nr5uobHXBr4TiGC-37" value="" style="verticalLabelPosition=bottom;verticalAlign=top;html=1;shape=mxgraph.basic.diag_snip_rect;dx=6;whiteSpace=wrap;dashed=0;sketch=0;strokeColor=#21E1FF;align=center;fontFamily=Helvetica;fontSize=12;fontColor=default;fillColor=none;strokeWidth=12;" vertex="1" parent="1">
          <mxGeometry x="1584" y="27" width="1334" height="1383" as="geometry" />
        </mxCell>
        <mxCell id="ekbk7nr5uobHXBr4TiGC-38" value="" style="edgeStyle=orthogonalEdgeStyle;rounded=0;orthogonalLoop=1;jettySize=auto;html=1;fontFamily=Helvetica;fontSize=12;fontColor=default;" edge="1" parent="1" source="ekbk7nr5uobHXBr4TiGC-10" target="ekbk7nr5uobHXBr4TiGC-25">
          <mxGeometry relative="1" as="geometry">
            <mxPoint x="615" y="1026" as="sourcePoint" />
            <mxPoint x="2005" y="367.00000000000045" as="targetPoint" />
          </mxGeometry>
        </mxCell>
        <mxCell id="ekbk7nr5uobHXBr4TiGC-25" value="&lt;h2 style=&quot;text-align: left;&quot;&gt;&lt;span style=&quot;font-weight: 400;&quot;&gt;&lt;font style=&quot;font-size: 42px;&quot;&gt;www.foobar.com&lt;/font&gt;&lt;/span&gt;&lt;/h2&gt;" style="text;strokeColor=none;align=center;fillColor=none;html=1;verticalAlign=middle;rounded=0;fontFamily=Comic Sans MS;fontSize=58;fontColor=#F0F0F0;labelBorderColor=none;fontStyle=1;textShadow=1;whiteSpace=wrap;labelBackgroundColor=none;" vertex="1" parent="1">
          <mxGeometry x="177" y="849" width="410" height="97" as="geometry" />
        </mxCell>
        <mxCell id="ekbk7nr5uobHXBr4TiGC-39" value="" style="endArrow=classic;html=1;rounded=0;fontFamily=Helvetica;fontSize=12;fontColor=default;exitX=0.295;exitY=-0.06;exitDx=0;exitDy=0;exitPerimeter=0;" edge="1" parent="1" source="ekbk7nr5uobHXBr4TiGC-36">
          <mxGeometry width="50" height="50" relative="1" as="geometry">
            <mxPoint x="1134" y="791" as="sourcePoint" />
            <mxPoint x="272" y="676" as="targetPoint" />
          </mxGeometry>
        </mxCell>
        <mxCell id="ekbk7nr5uobHXBr4TiGC-41" value="" style="endArrow=classic;html=1;rounded=0;fontFamily=Helvetica;fontSize=12;fontColor=default;strokeColor=#FFFFFF;strokeWidth=11;" edge="1" parent="1">
          <mxGeometry width="50" height="50" relative="1" as="geometry">
            <mxPoint x="208" y="797" as="sourcePoint" />
            <mxPoint x="208" y="481" as="targetPoint" />
          </mxGeometry>
        </mxCell>
        <mxCell id="ekbk7nr5uobHXBr4TiGC-42" value="" style="endArrow=classic;html=1;rounded=0;fontFamily=Helvetica;fontSize=12;fontColor=default;strokeColor=#DBDBDB;strokeWidth=12;entryX=0.66;entryY=-0.003;entryDx=0;entryDy=0;entryPerimeter=0;exitX=0.725;exitY=1.007;exitDx=0;exitDy=0;exitPerimeter=0;" edge="1" parent="1" source="ekbk7nr5uobHXBr4TiGC-33" target="ekbk7nr5uobHXBr4TiGC-36">
          <mxGeometry relative="1" as="geometry">
            <mxPoint x="592" y="798" as="sourcePoint" />
            <mxPoint x="692" y="798" as="targetPoint" />
            <Array as="points" />
          </mxGeometry>
        </mxCell>
        <mxCell id="ekbk7nr5uobHXBr4TiGC-43" value="" style="shape=message;html=1;outlineConnect=0;dashed=0;sketch=0;strokeColor=none;align=center;verticalAlign=top;fontFamily=Helvetica;fontSize=12;fontColor=default;fillColor=none;" vertex="1" parent="ekbk7nr5uobHXBr4TiGC-42">
          <mxGeometry width="20" height="14" relative="1" as="geometry">
            <mxPoint x="-10" y="-7" as="offset" />
          </mxGeometry>
        </mxCell>
        <mxCell id="ekbk7nr5uobHXBr4TiGC-49" value="&lt;h2 style=&quot;text-align: left; font-size: 58px;&quot;&gt;&lt;span style=&quot;font-weight: 400;&quot;&gt;8.8.8.8&lt;/span&gt;&lt;/h2&gt;" style="text;strokeColor=none;align=center;fillColor=none;html=1;verticalAlign=middle;rounded=0;fontFamily=Comic Sans MS;fontSize=58;fontColor=#F0F0F0;labelBorderColor=none;fontStyle=1;textShadow=1;whiteSpace=wrap;labelBackgroundColor=none;" vertex="1" parent="1">
          <mxGeometry x="420" y="614" width="307" height="167" as="geometry" />
        </mxCell>
        <mxCell id="ekbk7nr5uobHXBr4TiGC-50" style="edgeStyle=orthogonalEdgeStyle;rounded=0;orthogonalLoop=1;jettySize=auto;html=1;exitX=0.5;exitY=1;exitDx=0;exitDy=0;fontFamily=Helvetica;fontSize=12;fontColor=default;" edge="1" parent="1" source="ekbk7nr5uobHXBr4TiGC-17" target="ekbk7nr5uobHXBr4TiGC-17">
          <mxGeometry relative="1" as="geometry" />
        </mxCell>
        <mxCell id="ekbk7nr5uobHXBr4TiGC-52" value="" style="endArrow=classic;startArrow=classic;html=1;rounded=0;fontFamily=Helvetica;fontSize=12;fontColor=default;strokeColor=#FFFFFF;strokeWidth=11;exitX=0.207;exitY=0.006;exitDx=0;exitDy=0;exitPerimeter=0;" edge="1" parent="1">
          <mxGeometry width="50" height="50" relative="1" as="geometry">
            <mxPoint x="1846.5550000000012" y="558.7999999999997" as="sourcePoint" />
            <mxPoint x="1844" y="359" as="targetPoint" />
            <Array as="points" />
          </mxGeometry>
        </mxCell>
        <mxCell id="ekbk7nr5uobHXBr4TiGC-53" value="" style="endArrow=classic;startArrow=classic;html=1;rounded=0;fontFamily=Helvetica;fontSize=12;fontColor=default;strokeColor=#FFFFFF;strokeWidth=11;exitX=0.207;exitY=0.006;exitDx=0;exitDy=0;exitPerimeter=0;" edge="1" parent="1">
          <mxGeometry width="50" height="50" relative="1" as="geometry">
            <mxPoint x="1840" y="1101" as="sourcePoint" />
            <mxPoint x="1837" y="901" as="targetPoint" />
            <Array as="points" />
          </mxGeometry>
        </mxCell>
        <mxCell id="ekbk7nr5uobHXBr4TiGC-62" value="" style="endArrow=classic;html=1;rounded=0;fontFamily=Helvetica;fontSize=12;fontColor=default;strokeColor=#FFFFFF;strokeWidth=13;entryX=0.544;entryY=0.158;entryDx=0;entryDy=0;entryPerimeter=0;" edge="1" parent="1">
          <mxGeometry width="50" height="50" relative="1" as="geometry">
            <mxPoint x="2499" y="223.15999999999997" as="sourcePoint" />
            <mxPoint x="2079.5200000000004" y="222.99999999999966" as="targetPoint" />
          </mxGeometry>
        </mxCell>
        <mxCell id="ekbk7nr5uobHXBr4TiGC-63" value="" style="endArrow=none;html=1;rounded=0;fontFamily=Helvetica;fontSize=12;fontColor=default;strokeColor=#FFFFFF;strokeWidth=12;" edge="1" parent="1">
          <mxGeometry width="50" height="50" relative="1" as="geometry">
            <mxPoint x="2543" y="515.16" as="sourcePoint" />
            <mxPoint x="2495" y="224.15999999999997" as="targetPoint" />
            <Array as="points">
              <mxPoint x="2639" y="376.15999999999997" />
            </Array>
          </mxGeometry>
        </mxCell>
        <mxCell id="ekbk7nr5uobHXBr4TiGC-65" value="" style="endArrow=classic;html=1;rounded=0;fontFamily=Helvetica;fontSize=12;fontColor=default;strokeColor=#FFFFFF;strokeWidth=13;entryX=0.544;entryY=0.158;entryDx=0;entryDy=0;entryPerimeter=0;" edge="1" parent="1">
          <mxGeometry width="50" height="50" relative="1" as="geometry">
            <mxPoint x="2406" y="785.16" as="sourcePoint" />
            <mxPoint x="2060.0000000000005" y="804.1599999999995" as="targetPoint" />
          </mxGeometry>
        </mxCell>
        <mxCell id="ekbk7nr5uobHXBr4TiGC-67" value="" style="endArrow=classic;html=1;rounded=0;fontFamily=Helvetica;fontSize=12;fontColor=default;exitX=1.015;exitY=0.28;exitDx=0;exitDy=0;exitPerimeter=0;strokeColor=#FAFAFA;strokeWidth=13;" edge="1" parent="1">
          <mxGeometry width="50" height="50" relative="1" as="geometry">
            <mxPoint x="664.8949999999995" y="946.44" as="sourcePoint" />
            <mxPoint x="1498" y="954" as="targetPoint" />
            <Array as="points" />
          </mxGeometry>
        </mxCell>
        <mxCell id="ekbk7nr5uobHXBr4TiGC-68" value="" style="endArrow=classic;html=1;rounded=0;fontFamily=Helvetica;fontSize=12;fontColor=default;strokeColor=#FAFAFA;strokeWidth=13;entryX=1.004;entryY=0.663;entryDx=0;entryDy=0;entryPerimeter=0;" edge="1" parent="1" target="ekbk7nr5uobHXBr4TiGC-36">
          <mxGeometry width="50" height="50" relative="1" as="geometry">
            <mxPoint x="1468" y="1159" as="sourcePoint" />
            <mxPoint x="715" y="1149" as="targetPoint" />
            <Array as="points" />
          </mxGeometry>
        </mxCell>
        <mxCell id="ekbk7nr5uobHXBr4TiGC-70" value="&lt;font style=&quot;font-size: 53px;&quot; color=&quot;#ffffff&quot;&gt;HTTP request&lt;/font&gt;" style="text;strokeColor=none;align=center;fillColor=none;html=1;verticalAlign=middle;whiteSpace=wrap;rounded=0;fontFamily=Helvetica;fontSize=12;fontColor=default;" vertex="1" parent="1">
          <mxGeometry x="780" y="864" width="440" height="30" as="geometry" />
        </mxCell>
        <mxCell id="ekbk7nr5uobHXBr4TiGC-73" value="&lt;font style=&quot;font-size: 53px;&quot; color=&quot;#ffffff&quot;&gt;HTTP response&lt;/font&gt;" style="text;strokeColor=none;align=center;fillColor=none;html=1;verticalAlign=middle;whiteSpace=wrap;rounded=0;fontFamily=Helvetica;fontSize=12;fontColor=default;" vertex="1" parent="1">
          <mxGeometry x="777" y="1212" width="440" height="30" as="geometry" />
        </mxCell>
        <mxCell id="ekbk7nr5uobHXBr4TiGC-76" value="&lt;font color=&quot;#f0a6ff&quot; face=&quot;Comic Sans MS&quot;&gt;&lt;span style=&quot;font-size: 45px;&quot;&gt;Designed by &lt;b style=&quot;&quot;&gt;Hafssa LOZZI&lt;/b&gt;&lt;/span&gt;&lt;/font&gt;" style="text;strokeColor=none;align=center;fillColor=none;html=1;verticalAlign=middle;whiteSpace=wrap;rounded=0;fontFamily=Helvetica;fontSize=12;fontColor=default;" vertex="1" parent="1">
          <mxGeometry x="30" y="1532" width="657" height="33" as="geometry" />
        </mxCell>
        <mxCell id="ekbk7nr5uobHXBr4TiGC-77" style="edgeStyle=orthogonalEdgeStyle;rounded=0;orthogonalLoop=1;jettySize=auto;html=1;exitX=0.5;exitY=1;exitDx=0;exitDy=0;fontFamily=Helvetica;fontSize=12;fontColor=default;" edge="1" parent="1" source="ekbk7nr5uobHXBr4TiGC-18" target="ekbk7nr5uobHXBr4TiGC-18">
          <mxGeometry relative="1" as="geometry" />
        </mxCell>
        <mxCell id="ekbk7nr5uobHXBr4TiGC-78" value="" style="sketch=0;pointerEvents=1;shadow=0;dashed=0;html=1;labelPosition=center;verticalLabelPosition=bottom;verticalAlign=top;outlineConnect=0;align=center;shape=mxgraph.office.servers.web_server_blue;fillColor=#dae8fc;strokeColor=#6c8ebf;gradientColor=#7ea6e0;" vertex="1" parent="1">
          <mxGeometry x="1878" y="1498" width="313" height="255" as="geometry" />
        </mxCell>
        <mxCell id="ekbk7nr5uobHXBr4TiGC-79" value="" style="sketch=0;pointerEvents=1;shadow=0;dashed=0;html=1;labelPosition=center;verticalLabelPosition=bottom;verticalAlign=top;outlineConnect=0;align=center;shape=mxgraph.office.servers.application_server_blue;fillColor=#dae8fc;strokeColor=#6c8ebf;gradientColor=#7ea6e0;" vertex="1" parent="1">
          <mxGeometry x="1856" y="2013" width="309" height="268" as="geometry" />
        </mxCell>
        <mxCell id="ekbk7nr5uobHXBr4TiGC-80" value="" style="shape=image;html=1;verticalAlign=top;verticalLabelPosition=bottom;labelBackgroundColor=#ffffff;imageAspect=0;aspect=fixed;image=https://cdn1.iconfinder.com/data/icons/100-basic-for-user-interface/32/73-files-128.png" vertex="1" parent="1">
          <mxGeometry x="2516" y="1978.1599999999999" width="292" height="292" as="geometry" />
        </mxCell>
        <mxCell id="ekbk7nr5uobHXBr4TiGC-81" value="" style="sketch=0;outlineConnect=0;dashed=0;verticalLabelPosition=bottom;verticalAlign=top;align=center;html=1;fontSize=12;fontStyle=0;aspect=fixed;pointerEvents=1;shape=mxgraph.aws4.rds_mysql_instance;" vertex="1" parent="1">
          <mxGeometry x="1870" y="2555" width="192" height="192" as="geometry" />
        </mxCell>
        <mxCell id="ekbk7nr5uobHXBr4TiGC-82" value="" style="shadow=0;dashed=0;html=1;strokeColor=none;fillColor=#033269;labelPosition=center;verticalLabelPosition=bottom;verticalAlign=top;align=center;outlineConnect=0;shape=mxgraph.veeam.linux;" vertex="1" parent="1">
          <mxGeometry x="2632" y="2558" width="208" height="204" as="geometry" />
        </mxCell>
        <mxCell id="ekbk7nr5uobHXBr4TiGC-83" value="&lt;h2 style=&quot;&quot;&gt;&lt;span style=&quot;font-weight: 400; text-align: left;&quot;&gt;&lt;font style=&quot;font-size: 47px;&quot;&gt;webserver (Nginx)&lt;/font&gt;&lt;/span&gt;&lt;/h2&gt;" style="text;strokeColor=none;align=center;fillColor=none;html=1;verticalAlign=middle;rounded=0;fontFamily=Comic Sans MS;fontSize=58;fontColor=#F0F0F0;labelBorderColor=none;fontStyle=1;textShadow=1;whiteSpace=wrap;labelBackgroundColor=none;" vertex="1" parent="1">
          <mxGeometry x="1750" y="1717" width="577" height="114" as="geometry" />
        </mxCell>
        <mxCell id="ekbk7nr5uobHXBr4TiGC-84" value="&lt;h2 style=&quot;text-align: left;&quot;&gt;&lt;span style=&quot;font-weight: 400;&quot;&gt;&lt;font style=&quot;font-size: 54px;&quot;&gt;Database&lt;/font&gt;&lt;/span&gt;&lt;/h2&gt;" style="text;strokeColor=none;align=center;fillColor=none;html=1;verticalAlign=middle;rounded=0;fontFamily=Comic Sans MS;fontSize=58;fontColor=#F0F0F0;labelBorderColor=none;fontStyle=1;textShadow=1;whiteSpace=wrap;labelBackgroundColor=none;" vertex="1" parent="1">
          <mxGeometry x="1689" y="2722" width="567" height="107" as="geometry" />
        </mxCell>
        <mxCell id="ekbk7nr5uobHXBr4TiGC-85" value="&lt;h2 style=&quot;text-align: left;&quot;&gt;&lt;span style=&quot;font-weight: 400;&quot;&gt;&lt;font style=&quot;font-size: 47px;&quot;&gt;Application server&lt;/font&gt;&lt;/span&gt;&lt;/h2&gt;" style="text;strokeColor=none;align=center;fillColor=none;html=1;verticalAlign=middle;rounded=0;fontFamily=Comic Sans MS;fontSize=58;fontColor=#F0F0F0;labelBorderColor=none;fontStyle=1;textShadow=1;whiteSpace=wrap;labelBackgroundColor=none;" vertex="1" parent="1">
          <mxGeometry x="1717" y="2243" width="577" height="124" as="geometry" />
        </mxCell>
        <mxCell id="ekbk7nr5uobHXBr4TiGC-86" value="&lt;h2 style=&quot;text-align: left; font-size: 58px;&quot;&gt;&lt;span style=&quot;font-weight: 400;&quot;&gt;Application&amp;nbsp; files&lt;/span&gt;&lt;/h2&gt;" style="text;strokeColor=none;align=center;fillColor=none;html=1;verticalAlign=middle;rounded=0;fontFamily=Comic Sans MS;fontSize=58;fontColor=#F0F0F0;labelBorderColor=none;fontStyle=1;textShadow=1;whiteSpace=wrap;labelBackgroundColor=none;" vertex="1" parent="1">
          <mxGeometry x="2458" y="2228" width="484" height="167" as="geometry" />
        </mxCell>
        <mxCell id="ekbk7nr5uobHXBr4TiGC-87" value="" style="verticalLabelPosition=bottom;verticalAlign=top;html=1;shape=mxgraph.basic.diag_snip_rect;dx=6;whiteSpace=wrap;dashed=0;sketch=0;strokeColor=#21E1FF;align=center;fontFamily=Helvetica;fontSize=12;fontColor=default;fillColor=none;strokeWidth=12;" vertex="1" parent="1">
          <mxGeometry x="1704" y="1476" width="1334" height="1383" as="geometry" />
        </mxCell>
        <mxCell id="ekbk7nr5uobHXBr4TiGC-88" style="edgeStyle=orthogonalEdgeStyle;rounded=0;orthogonalLoop=1;jettySize=auto;html=1;exitX=0.5;exitY=1;exitDx=0;exitDy=0;fontFamily=Helvetica;fontSize=12;fontColor=default;" edge="1" source="ekbk7nr5uobHXBr4TiGC-83" target="ekbk7nr5uobHXBr4TiGC-83" parent="1">
          <mxGeometry relative="1" as="geometry" />
        </mxCell>
        <mxCell id="ekbk7nr5uobHXBr4TiGC-89" value="" style="endArrow=classic;startArrow=classic;html=1;rounded=0;fontFamily=Helvetica;fontSize=12;fontColor=default;strokeColor=#FFFFFF;strokeWidth=11;exitX=0.207;exitY=0.006;exitDx=0;exitDy=0;exitPerimeter=0;" edge="1" parent="1">
          <mxGeometry width="50" height="50" relative="1" as="geometry">
            <mxPoint x="1966.5550000000012" y="2007.7999999999997" as="sourcePoint" />
            <mxPoint x="1964" y="1808" as="targetPoint" />
            <Array as="points" />
          </mxGeometry>
        </mxCell>
        <mxCell id="ekbk7nr5uobHXBr4TiGC-90" value="" style="endArrow=classic;startArrow=classic;html=1;rounded=0;fontFamily=Helvetica;fontSize=12;fontColor=default;strokeColor=#FFFFFF;strokeWidth=11;exitX=0.207;exitY=0.006;exitDx=0;exitDy=0;exitPerimeter=0;" edge="1" parent="1">
          <mxGeometry width="50" height="50" relative="1" as="geometry">
            <mxPoint x="1960" y="2550" as="sourcePoint" />
            <mxPoint x="1957" y="2350" as="targetPoint" />
            <Array as="points" />
          </mxGeometry>
        </mxCell>
        <mxCell id="ekbk7nr5uobHXBr4TiGC-91" value="" style="endArrow=classic;html=1;rounded=0;fontFamily=Helvetica;fontSize=12;fontColor=default;strokeColor=#FFFFFF;strokeWidth=13;entryX=0.544;entryY=0.158;entryDx=0;entryDy=0;entryPerimeter=0;" edge="1" parent="1">
          <mxGeometry width="50" height="50" relative="1" as="geometry">
            <mxPoint x="2619" y="1672.1599999999999" as="sourcePoint" />
            <mxPoint x="2199.5200000000004" y="1671.9999999999995" as="targetPoint" />
          </mxGeometry>
        </mxCell>
        <mxCell id="ekbk7nr5uobHXBr4TiGC-92" value="" style="endArrow=none;html=1;rounded=0;fontFamily=Helvetica;fontSize=12;fontColor=default;strokeColor=#FFFFFF;strokeWidth=12;" edge="1" parent="1">
          <mxGeometry width="50" height="50" relative="1" as="geometry">
            <mxPoint x="2663" y="1964.1599999999999" as="sourcePoint" />
            <mxPoint x="2615" y="1673.1599999999999" as="targetPoint" />
            <Array as="points">
              <mxPoint x="2759" y="1825.1599999999999" />
            </Array>
          </mxGeometry>
        </mxCell>
        <mxCell id="ekbk7nr5uobHXBr4TiGC-93" value="" style="endArrow=classic;html=1;rounded=0;fontFamily=Helvetica;fontSize=12;fontColor=default;strokeColor=#FFFFFF;strokeWidth=13;entryX=0.544;entryY=0.158;entryDx=0;entryDy=0;entryPerimeter=0;" edge="1" parent="1">
          <mxGeometry width="50" height="50" relative="1" as="geometry">
            <mxPoint x="2526" y="2234.16" as="sourcePoint" />
            <mxPoint x="2180.0000000000005" y="2253.1599999999994" as="targetPoint" />
          </mxGeometry>
        </mxCell>
        <mxCell id="ekbk7nr5uobHXBr4TiGC-94" style="edgeStyle=orthogonalEdgeStyle;rounded=0;orthogonalLoop=1;jettySize=auto;html=1;exitX=0.5;exitY=1;exitDx=0;exitDy=0;fontFamily=Helvetica;fontSize=12;fontColor=default;" edge="1" source="ekbk7nr5uobHXBr4TiGC-84" target="ekbk7nr5uobHXBr4TiGC-84" parent="1">
          <mxGeometry relative="1" as="geometry" />
        </mxCell>
      </root>
    </mxGraphModel>
  </diagram>
</mxfile>
